<svg width="25" height="25" viewBox="0 0 25 25" fill="none" xmlns="http://www.w3.org/2000/svg">
<g clip-path="url(#clip0_7787_50211)">
<path d="M6.74375 8.94498C6.86329 8.94498 6.96021 8.84811 6.96021 8.72852C6.96021 6.23289 12.5294 3.70095 12.5857 3.67568C12.6947 3.62664 12.7434 3.49855 12.6943 3.3895C12.6455 3.28046 12.5173 3.23182 12.4083 3.28076C12.1681 3.38864 6.52734 5.95435 6.52734 8.72852C6.52729 8.84805 6.62421 8.94498 6.74375 8.94498Z" fill="#FCFCFC"/>
<path d="M21.7531 8.4776H21.3766C21.2623 6.73953 19.7784 4.80556 16.9615 2.72502C14.8042 1.13154 12.6171 0.0337165 12.5952 0.0227663C12.5344 -0.00758875 12.4627 -0.00758875 12.4018 0.0227663C12.38 0.0337165 10.1929 1.13159 8.03551 2.72497C5.21861 4.80556 3.73468 6.73953 3.62039 8.4776H3.2438C3.12427 8.4776 3.02734 8.57448 3.02734 8.69406V24.7835C3.02734 24.9031 3.12427 25 3.2438 25C3.36334 25 3.46026 24.9031 3.46026 24.7835V23.9902H4.75045V24.7835C4.75045 24.9031 4.84737 25 4.96691 25C5.08644 25 5.18336 24.9031 5.18336 24.7835V8.94475H5.3218C5.44133 8.94475 5.53825 8.84787 5.53825 8.72829C5.53825 5.77616 11.6696 2.68718 12.4986 2.2833C13.3275 2.68718 19.4588 5.77616 19.4588 8.72829C19.4588 8.84787 19.5556 8.94475 19.6752 8.94475H19.8136V24.7835C19.8136 24.9031 19.9105 25 20.0301 25C20.1497 25 20.2465 24.9031 20.2465 24.7835V23.9902H21.5367V24.7835C21.5367 24.9031 21.6336 25 21.7532 25C21.8728 25 21.9696 24.9031 21.9696 24.7835V8.69406C21.9696 8.57448 21.8727 8.4776 21.7531 8.4776ZM20.2465 10.2727H21.5367V22.6406H20.2465V10.2727ZM4.75045 22.6406H3.46026V10.2727H4.75045V22.6406V22.6406ZM3.46026 23.5573V23.0735H4.75045V23.5573H3.46026ZM12.5903 1.84697C12.5321 1.81982 12.465 1.81982 12.4067 1.84697C12.1149 1.98362 5.39804 5.16585 5.11451 8.51178H4.96686C4.84732 8.51178 4.7504 8.60865 4.7504 8.72824V9.83976H3.46026V8.91047H3.82966C3.9492 8.91047 4.04612 8.8136 4.04612 8.69401C4.04612 4.95632 11.5537 0.948798 12.4985 0.459552C13.4433 0.948594 20.9509 4.955 20.9509 8.69401C20.9509 8.8136 21.0477 8.91047 21.1673 8.91047H21.5367V9.83976H20.2465V8.72824C20.2465 8.60865 20.1496 8.51178 20.03 8.51178H19.8824C19.5989 5.16585 12.8822 1.98362 12.5903 1.84697ZM20.2465 23.5573V23.0735H21.5367V23.5573H20.2465Z" fill="#FCFCFC"/>
<path d="M10.3082 23.207H8.83755C8.71802 23.207 8.62109 23.3039 8.62109 23.4235C8.62109 23.5431 8.71802 23.6399 8.83755 23.6399H10.3082C10.4278 23.6399 10.5247 23.5431 10.5247 23.4235C10.5247 23.3039 10.4278 23.207 10.3082 23.207Z" fill="#FCFCFC"/>
<path d="M16.0333 17.5732C16.2037 17.1105 16.7225 15.7254 16.7225 15.7254C16.7503 15.6507 16.7348 15.5667 16.6822 15.5068C16.6296 15.4469 16.5481 15.4208 16.4706 15.4389L15.2409 15.725L15.1708 15.5751C15.1274 15.4825 15.0252 15.4327 14.9259 15.4559L11.5268 16.2419C11.4631 16.2566 11.4096 16.2993 11.3809 16.358C11.3523 16.4167 11.3518 16.4852 11.3795 16.5444L11.8931 17.6433L11.3238 17.774C11.3287 17.4791 11.3282 16.9632 11.284 16.4241C11.2215 15.66 11.0934 15.1181 10.896 14.7877C11.1253 14.7329 11.3473 14.6428 11.5542 14.5162C12.0709 14.1999 12.4336 13.7014 12.5754 13.1124C12.7552 12.3651 12.5375 11.5694 12.0082 11.0146L11.8829 9.96603C11.8534 9.71982 11.6444 9.53418 11.3966 9.53418C11.3772 9.53418 11.3576 9.5353 11.3382 9.53764L8.62195 9.86253C8.35364 9.89462 8.16153 10.139 8.19367 10.4072L8.33429 11.5836C8.26156 11.7324 8.20411 11.8888 8.16519 12.0506C8.0234 12.6396 8.11946 13.2486 8.43569 13.7654C8.50643 13.881 8.5868 13.9885 8.67476 14.0879C8.17166 14.4172 7.05326 15.3738 6.77773 17.4953C6.64612 18.5087 6.58016 19.9783 6.74645 20.8098L6.75476 20.8514C6.84302 21.2952 6.96194 21.8899 7.57011 22.2078C7.33777 22.2962 7.11331 22.42 6.93352 22.5942C6.67179 22.8478 6.53906 23.1687 6.53906 23.5482V24.1309C6.53906 24.1884 6.56193 24.2435 6.60262 24.2841C6.64322 24.3246 6.69817 24.3473 6.75552 24.3473C6.75562 24.3473 6.75577 24.3473 6.75593 24.3473L12.9885 24.336C14.3607 24.336 15.1834 23.6882 15.2457 22.5587C15.2941 21.6794 15.1531 20.6204 13.6188 20.2324C13.5529 20.2157 13.4853 20.1996 13.4165 20.1833C12.9707 20.0776 12.5125 19.9679 12.1561 19.6098L13.9147 19.2025C14.3411 19.1045 14.6085 18.6779 14.5108 18.2514L14.4618 18.0379L15.8794 17.7081C15.9985 17.6747 16.0141 17.6253 16.0333 17.5732ZM8.67344 10.2924L11.3896 9.96755C11.392 9.9673 11.3944 9.96715 11.3967 9.96715C11.4255 9.96715 11.4497 9.98879 11.4531 10.0175L11.5623 10.9305L8.74505 11.3725L8.72406 11.197L9.62381 11.0752C9.74228 11.0591 9.8253 10.9501 9.80925 10.8316C9.79326 10.7131 9.68417 10.6305 9.5657 10.6461L8.67267 10.767L8.62352 10.3559C8.61981 10.3247 8.64217 10.2962 8.67344 10.2924ZM8.58609 12.152C8.6138 12.0368 8.65276 11.9248 8.70165 11.8176L11.7241 11.3434C12.1319 11.7907 12.2969 12.4199 12.1546 13.0111C11.9178 13.9949 10.9249 14.6029 9.94081 14.3658C9.46425 14.2511 9.06087 13.9577 8.80499 13.5395C8.54911 13.1214 8.47134 12.6287 8.58609 12.152ZM13.3166 20.6048C13.3834 20.6206 13.4489 20.6362 13.5127 20.6523C14.6624 20.9431 14.8642 21.6153 14.8136 22.5351C14.7512 23.6659 13.7867 23.9033 12.9882 23.9033L6.97208 23.9142V23.6401H8.15934C8.27887 23.6401 8.37579 23.5433 8.37579 23.4237C8.37579 23.3041 8.27887 23.2072 8.15934 23.2072H7.03223C7.07557 23.0952 7.14229 22.995 7.23422 22.9059C7.60923 22.542 8.28544 22.4518 8.64558 22.4301C8.65164 22.4302 8.65729 22.4305 8.6634 22.4305C8.74051 22.4305 8.82124 22.4282 8.90512 22.4237C10.8295 22.3189 11.194 22.3784 11.3692 22.407C11.4229 22.4158 11.4735 22.424 11.541 22.424C11.6606 22.424 11.7575 22.3271 11.7575 22.2076C11.7575 22.088 11.6606 21.9911 11.541 21.9911C11.5099 21.9911 11.4873 21.9876 11.439 21.9797C11.2344 21.9463 10.8538 21.8844 8.89066 21.9909C8.85832 21.9901 8.75737 21.989 8.61425 21.9977C7.42246 21.9866 7.30405 21.3931 7.17947 20.7671L7.17107 20.725C7.02138 19.9765 7.07588 18.5617 7.20713 17.5512C7.48317 15.4255 8.65536 14.5953 9.00388 14.3927C9.24911 14.5778 9.53178 14.7127 9.83951 14.7867C10.0171 14.8295 10.1964 14.8506 10.3745 14.8506C10.3766 14.8506 10.3786 14.8504 10.3806 14.8504C10.6423 14.9851 10.8075 15.7458 10.8689 16.6503L10.6268 15.5954C10.5435 15.2325 10.2257 14.979 9.85372 14.979C9.79408 14.979 9.73418 14.9859 9.67561 14.9993L9.30055 15.0854C9.09393 15.1328 8.91811 15.2578 8.80555 15.4375C8.69299 15.6171 8.65709 15.8298 8.70456 16.0364L9.47947 19.4137C9.5627 19.7765 9.88056 20.0299 10.2524 20.0299H10.2524C10.3121 20.0299 10.3721 20.0231 10.431 20.0096L11.6782 19.7207C12.1426 20.3261 12.79 20.4798 13.3166 20.6048ZM13.8175 18.7808L10.3337 19.5877C10.3069 19.5939 10.2796 19.597 10.2525 19.597C10.0837 19.597 9.93933 19.4819 9.90149 19.3169L9.12657 15.9396C9.10503 15.8457 9.12128 15.7491 9.17246 15.6674C9.18927 15.6406 9.20944 15.6168 9.2319 15.5957L9.58959 17.3471C9.61052 17.4497 9.70072 17.5203 9.80146 17.5203C9.81582 17.5203 9.83039 17.5189 9.84501 17.5159C9.96215 17.4919 10.0377 17.3776 10.0138 17.2604L9.64419 15.4508L9.77253 15.4213C9.79932 15.4151 9.82667 15.4119 9.85377 15.4119C10.0227 15.4119 10.167 15.5272 10.2049 15.6922L10.763 18.1248C10.7759 18.1807 10.8105 18.2293 10.8591 18.2598C10.9077 18.2902 10.9665 18.3002 11.0224 18.2873L13.5705 17.7025C13.5973 17.6963 13.6247 17.6932 13.6518 17.6932C13.8206 17.6932 13.965 17.8084 14.0029 17.9733L14.089 18.3483C14.1333 18.5423 14.0118 18.7362 13.8175 18.7808ZM14.3206 17.6264C14.1786 17.4025 13.9303 17.2603 13.6517 17.2603C13.5921 17.2603 13.5322 17.2671 13.4737 17.2805L12.3247 17.5442L11.8849 16.6033L14.8527 15.917L14.9222 16.0658C14.9223 16.066 14.9224 16.0662 14.9225 16.0664L15.5212 17.3471L14.3206 17.6264ZM15.808 16.9383L15.4283 16.1259L16.1759 15.952L15.808 16.9383Z" fill="#FCFCFC"/>
<path d="M19.1071 9.4668C18.9875 9.4668 18.8906 9.56367 18.8906 9.68325V16.4062C18.8906 16.5258 18.9875 16.6226 19.1071 16.6226C19.2267 16.6226 19.3235 16.5258 19.3235 16.4062V9.68325C19.3235 9.56367 19.2266 9.4668 19.1071 9.4668Z" fill="#FCFCFC"/>
<path d="M19.1071 17.4873C18.9875 17.4873 18.8906 17.5842 18.8906 17.7038V19.513C18.8906 19.6326 18.9875 19.7295 19.1071 19.7295C19.2267 19.7295 19.3235 19.6326 19.3235 19.513V17.7038C19.3235 17.5842 19.2266 17.4873 19.1071 17.4873Z" fill="#FCFCFC"/>
</g>
<defs>
<clipPath id="clip0_7787_50211">
<rect width="25" height="25" fill="white"/>
</clipPath>
</defs>
</svg>
