<svg width="14" height="14" viewBox="0 0 14 14" fill="none" xmlns="http://www.w3.org/2000/svg">
<path fill-rule="evenodd" clip-rule="evenodd" d="M7.19523 5.7896L11.7338 1.25106C12.0685 0.916313 12.6113 0.916313 12.946 1.25106C13.2808 1.58581 13.2808 2.12855 12.946 2.4633L8.40747 7.00183L12.946 11.5404C13.2808 11.8752 13.2808 12.4179 12.946 12.7526C12.6113 13.0874 12.0686 13.0874 11.7338 12.7526L7.19523 8.21407L2.65666 12.7526C2.32191 13.0874 1.77917 13.0874 1.44442 12.7526C1.10967 12.4179 1.10967 11.8752 1.44442 11.5404L5.983 7.00183L1.44446 2.4633C1.10971 2.12855 1.10971 1.58581 1.44446 1.25106C1.77921 0.916313 2.32195 0.916313 2.6567 1.25106L7.19523 5.7896Z" fill="#323E48"/>
<path d="M11.7338 1.25106L11.557 1.07429L11.557 1.07429L11.7338 1.25106ZM7.19523 5.7896L7.01846 5.96637L7.19523 6.14315L7.37201 5.96637L7.19523 5.7896ZM12.946 1.25106L13.1228 1.07429V1.07429L12.946 1.25106ZM12.946 2.4633L12.7692 2.28652L12.7692 2.28652L12.946 2.4633ZM8.40747 7.00183L8.23069 6.82506L8.05392 7.00183L8.23069 7.17861L8.40747 7.00183ZM12.946 11.5404L13.1228 11.3636L12.946 11.5404ZM11.7338 12.7526L11.9106 12.5759L11.7338 12.7526ZM7.19523 8.21407L7.37201 8.03729L7.19523 7.86052L7.01846 8.03729L7.19523 8.21407ZM2.65666 12.7526L2.47988 12.5759H2.47988L2.65666 12.7526ZM1.44442 12.7526L1.6212 12.5759H1.6212L1.44442 12.7526ZM1.44442 11.5404L1.26765 11.3636H1.26764L1.44442 11.5404ZM5.983 7.00183L6.15977 7.17861L6.33655 7.00183L6.15977 6.82506L5.983 7.00183ZM1.44446 2.4633L1.62124 2.28652L1.62124 2.28652L1.44446 2.4633ZM1.44446 1.25106L1.26768 1.07429L1.44446 1.25106ZM2.6567 1.25106L2.83347 1.07429V1.07429L2.6567 1.25106ZM11.557 1.07429L7.01846 5.61282L7.37201 5.96637L11.9105 1.42784L11.557 1.07429ZM13.1228 1.07429C12.6904 0.641905 11.9894 0.641905 11.557 1.07429L11.9105 1.42784C12.1477 1.19072 12.5321 1.19072 12.7692 1.42784L13.1228 1.07429ZM13.1228 2.64008C13.5552 2.20769 13.5552 1.50667 13.1228 1.07429L12.7692 1.42784C13.0063 1.66496 13.0063 2.0494 12.7692 2.28652L13.1228 2.64008ZM8.58425 7.17861L13.1228 2.64008L12.7692 2.28652L8.23069 6.82506L8.58425 7.17861ZM8.23069 7.17861L12.7693 11.7172L13.1228 11.3636L8.58425 6.82506L8.23069 7.17861ZM12.7693 11.7172C13.0064 11.9543 13.0064 12.3388 12.7693 12.5759L13.1228 12.9294C13.5552 12.497 13.5552 11.796 13.1228 11.3636L12.7693 11.7172ZM12.7693 12.5759C12.5321 12.813 12.1477 12.813 11.9106 12.5759L11.557 12.9294C11.9894 13.3618 12.6904 13.3618 13.1228 12.9294L12.7693 12.5759ZM11.9106 12.5759L7.37201 8.03729L7.01846 8.39085L11.557 12.9294L11.9106 12.5759ZM2.83343 12.9294L7.37201 8.39085L7.01846 8.03729L2.47988 12.5759L2.83343 12.9294ZM1.26765 12.9294C1.70003 13.3618 2.40105 13.3618 2.83343 12.9294L2.47988 12.5759C2.24276 12.813 1.85832 12.813 1.6212 12.5759L1.26765 12.9294ZM1.26764 11.3636C0.835264 11.796 0.835264 12.497 1.26765 12.9294L1.6212 12.5759C1.38408 12.3388 1.38408 11.9543 1.6212 11.7172L1.26764 11.3636ZM5.80622 6.82506L1.26765 11.3636L1.6212 11.7172L6.15977 7.17861L5.80622 6.82506ZM6.15977 6.82506L1.62124 2.28652L1.26768 2.64008L5.80622 7.17861L6.15977 6.82506ZM1.62124 2.28652C1.38412 2.0494 1.38412 1.66496 1.62124 1.42784L1.26768 1.07429C0.835304 1.50667 0.835304 2.20769 1.26768 2.64008L1.62124 2.28652ZM1.62124 1.42784C1.85836 1.19072 2.2428 1.19072 2.47992 1.42784L2.83347 1.07429C2.40109 0.641905 1.70007 0.641905 1.26768 1.07429L1.62124 1.42784ZM2.47992 1.42784L7.01846 5.96637L7.37201 5.61282L2.83347 1.07429L2.47992 1.42784Z" fill="#323E48"/>
</svg>
