<svg width="40" height="41" viewBox="0 0 40 41" fill="none" xmlns="http://www.w3.org/2000/svg">
<g style="mix-blend-mode:luminosity">
<path d="M22.4313 5.3528C19.5235 4.86562 15.6109 5.76385 13.7688 6.37282C11.9266 6.98178 11.1502 6.32715 12.3834 5.13966C13.6165 3.9674 17.4682 2.93216 17.3617 1.60765C17.2551 0.267924 12.5965 -0.447613 6.38503 5.24623C0.325807 10.8031 -0.587644 18.7805 0.280134 23.7132C1.14791 28.6458 2.59421 29.4527 3.09661 28.7371C3.61423 28.0216 2.42674 25.8141 1.92435 23.089C1.40672 20.3638 1.66553 18.3238 2.53331 17.8518C3.40109 17.3799 2.99004 23.5914 4.78649 26.7732C6.58294 29.9551 8.3185 30.0007 9.50599 29.5897C10.6782 29.1786 6.01965 22.4648 8.42507 16.4664C10.8305 10.4681 15.55 8.626 18.9906 8.26062C22.4313 7.89524 24.7911 9.34153 26.0699 8.15405C27.3487 6.96656 25.5066 5.87042 22.4313 5.3528Z" fill="url(#paint0_linear_750:662)"/>
<path d="M4.19262 31.3101C3.21827 31.4014 4.87771 35.4663 8.80554 38.0391C12.7334 40.612 13.4641 39.8052 13.5403 39.1962C13.6164 38.5872 12.2767 38.8156 9.2775 36.4711C6.27833 34.1265 5.07562 31.2339 4.19262 31.3101Z" fill="#FFF5FA"/>
<path d="M15.0017 39.8357C14.682 40.2924 15.6564 40.8861 17.3767 40.947C19.1122 41.0079 19.6755 40.6121 19.2493 40.1402C18.823 39.6682 17.8334 39.7139 16.7525 39.5312C15.6716 39.3485 15.2453 39.4703 15.0017 39.8357Z" fill="#FFF5FA"/>
<path d="M4.42132 2.79503C2.73143 4.31744 1.30036 6.14434 1.48305 6.95123C1.65052 7.75811 2.50307 7.11869 3.67533 5.48971C4.8476 3.86072 8.21214 1.50097 9.49097 0.952901C10.7546 0.389606 10.6632 -0.386827 8.82111 0.22214C7.13122 0.77021 5.76105 1.59231 4.42132 2.79503Z" fill="#FFF5FA"/>
<path d="M27.8966 7.77352C27.105 7.3168 26.3133 8.50428 27.242 9.76789C28.1706 11.0315 31.8549 15.9641 29.7083 22.4953C27.5617 29.0417 23.71 29.879 23.4055 31.2644C23.101 32.6498 25.8718 32.6498 27.4856 31.5689C29.0993 30.488 31.9919 27.5649 33.0272 24.9464C34.0624 22.3278 33.9558 21.9777 34.717 22.069C35.4935 22.1451 35.2499 25.8751 32.4791 29.4527C29.7083 33.0304 27.5617 34.294 27.6682 35.2684C27.7748 36.2427 34.7475 33.5024 37.3204 25.19C39.8933 16.8776 35.0367 8.06278 32.1594 5.48989C29.282 2.93223 27.8509 3.58687 28.3686 4.82003C28.8862 6.05319 30.9871 6.92097 32.0071 9.0219C33.0272 11.1228 31.7483 11.3816 30.7283 10.1028C29.7083 8.83921 28.8101 8.30637 27.8966 7.77352Z" fill="#FFF5FA"/>
<path d="M21.3503 0.998672C20.7566 1.28793 21.7614 1.97302 23.7405 2.38407C25.7196 2.79512 26.9528 4.18052 27.4095 3.95216C27.8662 3.7238 26.8158 2.53631 25.3543 1.71421C23.8927 0.892103 22.3703 0.48105 21.3503 0.998672Z" fill="#FFF5FA"/>
<path d="M18.7623 0.74002C17.9402 0.92271 17.9402 1.50123 18.26 1.69914C18.5797 1.88183 20.0564 1.56213 19.9803 1.1663C19.8889 0.770469 19.4018 0.603003 18.7623 0.74002Z" fill="#FFF5FA"/>
<path d="M24.471 37.3692C22.568 38.0239 19.8581 38.237 19.7515 38.8612C19.6449 39.4854 22.431 39.6376 24.608 38.8612C26.7851 38.0848 27.5006 37.2322 27.3484 36.6689C27.1961 36.1056 25.8716 36.8821 24.471 37.3692Z" fill="#FFF5FA"/>
<path d="M39.7109 24.2307C39.1324 23.9262 38.3255 27.717 36.7422 30.0311C35.1589 32.3451 34.2302 33.1063 34.3824 33.3652C34.5347 33.624 36.8183 32.0863 38.3864 29.2851C39.9393 26.4838 40.3503 24.5656 39.7109 24.2307Z" fill="url(#paint1_linear_750:662)"/>
<path d="M19.3562 32.9085C26.5619 32.9085 32.4033 27.1694 32.4033 20.0898C32.4033 13.0101 26.5619 7.271 19.3562 7.271C12.1505 7.271 6.30908 13.0101 6.30908 20.0898C6.30908 27.1694 12.1505 32.9085 19.3562 32.9085Z" fill="url(#paint2_linear_750:662)"/>
<path d="M20.0562 31.4014C26.8163 31.4014 32.2964 26.0166 32.2964 19.3743C32.2964 12.7319 26.8163 7.34717 20.0562 7.34717C13.2961 7.34717 7.81592 12.7319 7.81592 19.3743C7.81592 26.0166 13.2961 31.4014 20.0562 31.4014Z" fill="url(#paint3_linear_750:662)"/>
<path d="M20.0258 29.6657C25.6003 29.6657 30.1194 25.0717 30.1194 19.4046C30.1194 13.7376 25.6003 9.14355 20.0258 9.14355C14.4512 9.14355 9.93213 13.7376 9.93213 19.4046C9.93213 25.0717 14.4512 29.6657 20.0258 29.6657Z" fill="url(#paint4_linear_750:662)"/>
<path d="M29.2063 16.101C31.0028 21.2316 28.5974 26.7579 23.817 28.4326C19.0366 30.1073 13.7081 27.306 11.9117 22.1602C10.1152 17.0297 12.5206 11.5033 17.301 9.82866C22.0814 8.154 27.4099 10.9552 29.2063 16.101Z" fill="url(#paint5_linear_750:662)"/>
<path d="M29.1604 15.7356C30.8807 20.6226 28.7189 25.8292 24.3343 27.3669C19.9498 28.9045 15.0171 26.1794 13.2968 21.2924C11.5765 16.4055 13.7383 11.1988 18.1229 9.66115C22.5074 8.12351 27.4401 10.8486 29.1604 15.7356Z" fill="url(#paint6_linear_750:662)"/>
<path d="M28.2016 18.7651C28.2625 21.4598 26.9684 23.8957 24.6848 24.9157C21.4725 26.3468 17.499 24.4285 15.8243 20.6377C14.6825 18.0496 14.8957 15.2636 16.1593 13.2997C16.753 12.3862 17.5751 11.6555 18.5951 11.1987C21.8074 9.76765 25.781 11.6859 27.4556 15.4767C27.9428 16.5576 28.1864 17.6842 28.2016 18.7651Z" fill="url(#paint7_linear_750:662)"/>
<path d="M28.2015 18.7651C27.6078 19.6786 26.7857 20.4094 25.7656 20.8661C22.5533 22.2972 18.5798 20.3789 16.9052 16.5881C16.418 15.5072 16.1744 14.3806 16.1592 13.2997C16.7529 12.3862 17.575 11.6555 18.595 11.1987C21.8073 9.76765 25.7809 11.6859 27.4555 15.4767C27.9427 16.5576 28.1863 17.6842 28.2015 18.7651Z" fill="url(#paint8_linear_750:662)"/>
<path d="M27.3791 22.3734C28.0489 20.5312 28.0033 18.2781 27.0594 16.1619C25.3238 12.2645 21.2437 10.2854 17.9249 11.7469C17.5899 11.8991 17.2702 12.0818 16.981 12.2797C17.4377 11.823 17.9857 11.4576 18.5947 11.1836C21.807 9.75252 25.7805 11.6708 27.4552 15.4616C28.5209 17.867 28.4143 20.4551 27.3791 22.3734Z" fill="url(#paint9_linear_750:662)"/>
<path d="M16.6616 21.3382C16.5702 21.3382 16.4789 21.2926 16.4332 21.2012C16.3571 21.0794 16.4028 20.912 16.5246 20.8358L18.0317 19.9376C18.1535 19.8615 18.321 19.9072 18.3971 20.029C18.4732 20.1507 18.4276 20.3182 18.3058 20.3943L16.7986 21.2926C16.7529 21.3382 16.7072 21.3382 16.6616 21.3382Z" fill="#1B237E"/>
<path d="M18.7472 14.2895C18.6559 14.2895 18.5797 14.2438 18.5188 14.1677L17.5293 12.7214C17.4379 12.5996 17.4684 12.4321 17.6054 12.3408C17.7272 12.2494 17.8946 12.2799 17.986 12.4169L18.9756 13.8632C19.0669 13.985 19.0365 14.1525 18.8994 14.2438C18.8538 14.2743 18.7929 14.2895 18.7472 14.2895Z" fill="#1B237E"/>
<path d="M25.415 23.9109C25.3237 23.9109 25.2475 23.8652 25.1866 23.7891L24.395 22.632C24.3036 22.5102 24.3341 22.3428 24.4711 22.2514C24.5929 22.1601 24.7604 22.1905 24.8517 22.3276L25.6434 23.4846C25.7347 23.6064 25.7043 23.7738 25.5673 23.8652C25.5216 23.8956 25.4607 23.9109 25.415 23.9109Z" fill="#1B237E"/>
<path d="M25.2178 16.4969C25.1264 16.4969 25.0351 16.4512 24.9742 16.3599C24.898 16.2229 24.9437 16.0706 25.0807 15.9945L26.1008 15.4312C26.2378 15.3551 26.39 15.4008 26.4661 15.5378C26.5423 15.6748 26.4966 15.827 26.3596 15.9032L25.3395 16.4664C25.2939 16.4817 25.2482 16.4969 25.2178 16.4969Z" fill="#1B237E"/>
<path d="M18.656 4.91135L17.0879 7.7126C17.0879 7.7126 20.6808 6.95139 23.3907 7.89529C26.1006 8.83919 28.1711 10.5747 28.1711 10.5747C28.1711 10.5747 28.1559 8.70217 28.1711 8.10843C28.2015 7.16453 28.1406 6.05316 27.0445 5.55076C25.6591 4.91135 22.4925 3.96745 21.3507 3.70864C19.7369 3.35848 18.9605 4.11969 18.656 4.91135Z" fill="url(#paint10_linear_750:662)"/>
<path d="M12.8555 29.1025L13.16 34.0961C13.1904 34.6137 13.5253 35.0704 14.0125 35.2683C14.926 35.6185 16.4179 36.1666 17.849 36.4558C19.5998 36.8212 21.0156 36.806 21.7768 36.8364C22.2031 36.8669 22.7816 36.4863 22.9187 36.0752L24.8064 30.4575C24.8064 30.4575 20.8786 31.8429 17.575 31.0817C14.8955 30.4879 12.8555 29.1025 12.8555 29.1025Z" fill="url(#paint11_linear_750:662)"/>
<path d="M13.2056 34.4155C13.2056 34.4155 14.2257 35.2224 16.8594 35.877C20.3915 36.7601 22.9034 36.0293 22.9034 36.0293C22.9034 36.0293 22.5381 37.8562 20.6503 37.841C19.9804 37.841 18.7929 37.841 16.8899 37.4604C15.0325 37.0798 13.571 36.6535 12.825 36.1054C12.551 35.8923 12.6728 35.2224 12.8707 34.9331L13.2056 34.4155Z" fill="#F94E33"/>
<path d="M12.8554 29.1025L13.2208 34.4158C13.2208 34.4158 12.9468 34.8421 12.8402 35.2227C12.7336 35.6033 12.7641 36.0295 12.7641 36.0295C12.7641 36.0295 12.2617 35.6489 12.2008 34.5223C12.1703 33.959 11.7593 30.4575 11.7593 30.4575L12.8554 29.1025Z" fill="#F94E33"/>
<path d="M7.86208 18.2021L3.05124 21.11C2.59452 21.384 2.32048 21.9016 2.35093 22.4345C2.3966 23.1957 2.50317 24.3375 2.83811 25.3575C3.41662 27.1083 4.04082 28.2349 4.48232 28.8743C4.7868 29.3158 5.31965 29.5289 5.83727 29.4224L11.8204 28.2197C11.8204 28.2197 9.56719 26.073 8.60807 23.4393C7.57282 20.5619 7.86208 18.2021 7.86208 18.2021Z" fill="url(#paint12_linear_750:662)"/>
<path d="M4.81689 29.2241C4.81689 29.2241 5.45631 30.2289 6.41543 30.3659C7.37456 30.503 10.9218 29.8788 10.9218 29.8788L11.82 28.2041C11.82 28.2041 9.18623 28.6608 7.51157 29.0262C5.82169 29.4068 4.81689 29.2241 4.81689 29.2241Z" fill="#F94E33"/>
<path d="M2.4574 21.8101C2.4574 21.8101 2.0159 22.7996 2.19859 24.185C2.32038 25.2051 2.68576 26.56 3.49265 28.0063C4.2843 29.4374 5.10641 29.8789 5.56313 30.1072C6.01986 30.3356 6.233 30.3356 6.233 30.3356C6.233 30.3356 4.39087 28.463 3.67533 26.8036C2.5183 24.1394 2.4574 21.8101 2.4574 21.8101Z" fill="#F94E33"/>
<path d="M7.953 17.6389C7.953 17.6389 3.62933 13.3913 3.93382 11.9755C4.02516 11.5492 4.90816 9.90497 6.17177 8.44345C7.43538 6.98193 8.50107 6.69267 9.01869 6.75357C10.4498 6.90581 14.4842 8.74793 14.4842 8.74793C14.4842 8.74793 11.2262 10.8793 9.99304 12.554C8.37928 14.7463 7.953 17.6389 7.953 17.6389Z" fill="url(#paint13_linear_750:662)"/>
<path d="M6.47654 18.141C6.47654 18.141 4.46694 15.9487 3.85798 14.6547C3.24901 13.3606 3.17289 13.1323 3.3708 12.6603C3.58394 12.1731 3.88843 11.8687 3.88843 11.8687C3.88843 11.8687 4.83232 13.6956 6.09593 15.1723C7.35954 16.649 7.93806 17.6234 7.93806 17.6234L6.47654 18.141Z" fill="#F94E33"/>
<path d="M3.26416 13.1934L3.93402 12.3409C3.93402 12.3409 4.16238 11.0772 5.44122 9.47871C6.70482 7.88017 7.25289 7.37777 7.77051 7.07329C8.28814 6.7688 8.86666 6.73836 8.86666 6.73836C8.86666 6.73836 8.56217 6.60134 7.78574 6.87537C7.00931 7.14941 5.79137 8.16943 5.03016 9.18945C4.26895 10.2095 3.88835 10.9402 3.67521 11.4426C3.37073 12.1429 3.26416 13.1934 3.26416 13.1934Z" fill="#F94E33"/>
<path d="M33.0733 11.5642L29.0693 11.4424C29.0693 11.4424 31.3073 14.1066 31.8097 16.6338C32.3121 19.161 32.0076 21.9775 32.0076 21.9775L35.905 19.7243C36.3769 19.4199 36.6662 18.9022 36.6357 18.3389C36.6053 17.6843 36.4835 16.6947 36.0877 15.3398C35.7071 14.0153 34.7023 12.5842 34.2608 12.1122C33.9563 11.7469 33.53 11.549 33.0733 11.5642Z" fill="url(#paint14_linear_750:662)"/>
<path d="M32.0225 21.6579C32.0225 21.6579 34.8389 19.9833 35.661 19.5722C36.4831 19.146 36.6354 18.6436 36.6354 18.6436C36.6354 18.6436 36.5593 19.4352 35.9503 19.831C35.3413 20.2269 32.2204 22.2974 32.2204 22.2974L32.0225 21.6579Z" fill="#F94E33"/>
<path d="M20.1934 3.63232C20.1934 3.63232 19.4779 3.92158 19.1582 4.51533C18.8385 5.12429 17.0877 7.7124 17.0877 7.7124L16.5244 7.57539C16.5244 7.57539 18.0621 4.91116 18.5949 4.24129C19.1277 3.57143 19.8433 3.678 20.1934 3.63232Z" fill="#F94E33"/>
<path d="M25.9028 29.9401L30.7746 32.9088C31.4749 33.3351 32.3731 33.1372 32.8298 32.4521L35.3266 28.6917C35.7224 28.0827 35.6463 27.2911 35.1439 26.7734L31.6423 23.2871C31.6423 23.2871 30.7441 25.3576 29.4805 26.8952C27.8668 28.8592 25.9028 29.9401 25.9028 29.9401Z" fill="url(#paint15_linear_750:662)"/>
<path d="M25.9023 29.9399L25.4761 31.4319C25.4761 31.4319 29.3126 33.4872 30.0586 33.8221C30.8045 34.1723 31.0633 34.2332 31.4287 34.0657C31.7941 33.9134 32.601 32.726 32.601 32.726C32.601 32.726 31.8855 33.1522 31.2917 33C30.6827 32.863 25.9023 29.9399 25.9023 29.9399Z" fill="#F94E33"/>
<path d="M19.8896 18.0955L19.9658 13.1781C19.9658 12.904 20.1789 12.6757 20.4682 12.6605C20.6813 12.6452 20.8792 12.767 20.9706 12.9649L23.2999 17.928L23.6044 23.1042C23.6196 23.4087 23.3912 23.6828 23.0867 23.7132C22.8431 23.7437 22.6148 23.6066 22.5082 23.3935L19.8896 18.0955Z" fill="#EC4726"/>
<path d="M19.8892 18.0953L23.2994 17.9126L23.6039 23.0888C23.6191 23.3933 23.3907 23.6673 23.0862 23.6978C22.8427 23.7282 22.6143 23.5912 22.5077 23.3781L19.8892 18.0953Z" fill="#F7A45F"/>
<path d="M22.3611 19.1631C22.876 18.9347 23.0723 18.251 22.7996 17.6362C22.5268 17.0213 21.8883 16.708 21.3733 16.9365C20.8584 17.1649 20.662 17.8485 20.9348 18.4634C21.2075 19.0783 21.8461 19.3915 22.3611 19.1631Z" fill="#F94E33"/>
<path d="M22.2513 18.8849C22.6433 18.711 22.7952 18.1962 22.5907 17.7351C22.3861 17.2739 21.9025 17.0411 21.5105 17.2149C21.1185 17.3888 20.9666 17.9036 21.1712 18.3648C21.3758 18.8259 21.8594 19.0588 22.2513 18.8849Z" fill="#FD6D47"/>
<path d="M29.7388 11.5796C29.7388 11.5796 33.423 11.6557 33.6057 11.7166C33.7884 11.7775 35.1281 12.6301 36.0264 15.3552C36.8028 17.7149 36.4374 18.4914 36.4374 18.4914C36.4374 18.4914 35.5087 15.3095 34.8084 14.1372C34.3821 13.3913 33.9711 12.7975 33.6971 12.4626C33.5296 12.2647 32.8902 12.0515 32.6314 12.0059L29.7388 11.5796Z" fill="#FFD8BB"/>
<path d="M35.3109 27.1692C35.3109 27.1692 35.6306 27.8543 35.3566 28.3414C35.0826 28.8286 32.8598 32.254 32.5401 32.6042C32.2204 32.9544 31.5962 33.0305 31.17 32.9087C30.7437 32.7869 28.0186 31.097 28.0186 31.097C28.0186 31.097 30.7437 32.1931 31.1852 32.3454C31.6267 32.4976 31.9312 32.452 32.5858 31.6451C33.2404 30.8382 34.8542 28.4023 34.976 28.0674C35.0978 27.7325 34.6411 26.9865 34.0778 26.3471C33.484 25.6772 32.738 24.5811 32.738 24.5811C32.738 24.5811 34.9912 26.6363 35.3109 27.1692Z" fill="#FFD8BB"/>
<path d="M17.103 7.91054C17.103 7.91054 21.99 6.08364 27.3032 10.0876C32.586 14.0763 31.977 21.0033 31.977 21.0033C31.977 21.0033 31.5355 13.9698 27.1205 10.4987C22.6903 7.02754 17.103 7.91054 17.103 7.91054Z" fill="#FFD8BB"/>
<path d="M17.9248 9.8591C17.9248 9.8591 21.8222 8.18444 26.0088 11.3358C30.165 14.4872 29.6474 20.1811 29.6474 20.1811C29.6474 20.1811 29.3582 14.4111 25.8718 11.6708C22.3855 8.94565 17.9248 9.8591 17.9248 9.8591Z" fill="#4056B2"/>
<path d="M18.4272 6.11405C18.4272 6.11405 19.3711 4.39372 19.7517 4.01312C20.1324 3.63251 20.65 3.63251 21.2742 3.76953C21.8984 3.90655 24.3647 4.59163 25.7349 5.15493C27.105 5.71822 27.4704 5.85524 27.7749 6.31197C28.0794 6.76869 28.1098 7.56035 28.0946 8.12364C28.0794 8.68694 28.0794 9.66129 28.0794 9.66129C28.0794 9.66129 28.0185 7.63647 27.6531 6.92093C27.2877 6.19017 26.9223 6.02271 25.1716 5.44419C23.4208 4.86567 20.9392 4.04357 20.3912 4.10446C19.8431 4.16536 18.4272 6.11405 18.4272 6.11405Z" fill="#FFD8BB"/>
<path d="M13.4791 8.39761C13.4791 8.39761 9.50563 6.95131 9.14025 6.87519C8.79009 6.79907 7.86142 7.08833 7.17633 7.72775C6.49124 8.36716 5.16674 9.88958 4.64911 10.7878C4.13149 11.686 4.14672 12.0666 4.43598 12.5386C4.72524 13.0105 6.14108 14.9745 6.14108 14.9745C6.14108 14.9745 4.57299 12.3254 4.67956 11.8687C4.78613 11.412 6.03451 9.47853 7.20678 8.45851C8.39426 7.43849 8.69875 7.31669 9.38383 7.42326C10.0689 7.52983 13.4791 8.39761 13.4791 8.39761Z" fill="#FFD8BB"/>
<path d="M14.4845 8.73242C14.4845 8.73242 11.8507 9.98081 10.0542 12.6298C8.2578 15.2788 8.09033 17.1971 8.09033 17.1971C8.09033 17.1971 9.46051 13.9391 11.1047 11.9752C12.7946 9.91991 14.4845 8.73242 14.4845 8.73242Z" fill="#FFD8BB"/>
<path d="M4.86247 20.166C4.86247 20.166 3.27915 21.0642 2.8681 21.3383C2.47227 21.6123 2.50272 21.9625 2.59406 22.6932C2.68541 23.424 2.79198 24.6267 3.59886 26.4079C4.40574 28.1892 5.15172 29.1178 5.39531 29.1787C5.65412 29.2396 7.86163 28.8286 8.44015 28.7372C9.01867 28.6459 9.59718 28.5089 9.59718 28.5089C9.59718 28.5089 6.59802 28.8286 6.03473 28.859C5.47143 28.8895 4.98426 28.3871 4.05558 26.1796C3.14213 23.9721 2.91377 21.9016 2.97467 21.5819C3.05079 21.2926 4.86247 20.166 4.86247 20.166Z" fill="#FFD8BB"/>
<path d="M17.5596 31.0969C17.5596 31.0969 21.8528 31.8428 25.4457 30.0768C29.0386 28.3108 30.0891 25.9663 30.0891 25.9663C30.0891 25.9663 28.2622 28.3413 25.1717 29.7267C22.0659 31.1273 17.5596 31.0969 17.5596 31.0969Z" fill="#FFD8BB"/>
<path d="M13.0684 31.0513C13.0684 31.0513 13.2206 33.9895 13.3881 34.2788C13.5403 34.5681 15.215 35.5424 18.0619 35.9839C20.9088 36.4254 22.7357 36.1209 22.8118 35.9382C22.888 35.7555 23.8471 32.9543 23.8471 32.9543C23.8471 32.9543 22.8575 35.4815 22.4921 35.6794C22.1267 35.8773 19.9345 35.7555 18.1076 35.5424C16.2807 35.3293 13.8448 34.3092 13.7078 34.02C13.5708 33.7307 13.0684 31.0513 13.0684 31.0513Z" fill="#FFD8BB"/>
</g>
<defs>
<linearGradient id="paint0_linear_750:662" x1="-0.0111808" y1="15.2337" x2="26.4813" y2="15.2337" gradientUnits="userSpaceOnUse">
<stop stop-color="#DDDCFE"/>
<stop offset="1" stop-color="#B1AFE9"/>
</linearGradient>
<linearGradient id="paint1_linear_750:662" x1="34.3613" y1="28.798" x2="40.0022" y2="28.798" gradientUnits="userSpaceOnUse">
<stop stop-color="#DDDCFE"/>
<stop offset="1" stop-color="#B1AFE9"/>
</linearGradient>
<linearGradient id="paint2_linear_750:662" x1="11.7477" y1="33.4503" x2="22.4272" y2="14.7159" gradientUnits="userSpaceOnUse">
<stop stop-color="#F94E33"/>
<stop offset="1" stop-color="#F06C49"/>
</linearGradient>
<linearGradient id="paint3_linear_750:662" x1="31.0491" y1="6.31054" x2="8.37859" y2="33.2242" gradientUnits="userSpaceOnUse">
<stop stop-color="#F9B566"/>
<stop offset="1" stop-color="#F06C49"/>
</linearGradient>
<linearGradient id="paint4_linear_750:662" x1="22.353" y1="2.36979" x2="19.9372" y2="20.0051" gradientUnits="userSpaceOnUse">
<stop stop-color="#F9B566"/>
<stop offset="1" stop-color="#F06C49"/>
</linearGradient>
<linearGradient id="paint5_linear_750:662" x1="17.7562" y1="26.4669" x2="25.3585" y2="6.55595" gradientUnits="userSpaceOnUse">
<stop stop-color="#0D1748"/>
<stop offset="1" stop-color="#1B237E"/>
</linearGradient>
<linearGradient id="paint6_linear_750:662" x1="27.5048" y1="4.55312" x2="22.7081" y2="15.2326" gradientUnits="userSpaceOnUse">
<stop stop-color="#0D1748"/>
<stop offset="1" stop-color="#1B237E"/>
</linearGradient>
<linearGradient id="paint7_linear_750:662" x1="21.1123" y1="22.0484" x2="22.2587" y2="13.4204" gradientUnits="userSpaceOnUse">
<stop stop-color="#F6E3EE"/>
<stop offset="0.9946" stop-color="#FDF4F8"/>
</linearGradient>
<linearGradient id="paint8_linear_750:662" x1="16.1672" y1="16.0322" x2="28.2061" y2="16.0322" gradientUnits="userSpaceOnUse">
<stop stop-color="#F8DBE9"/>
<stop offset="0.1344" stop-color="white"/>
<stop offset="0.8387" stop-color="white"/>
<stop offset="1" stop-color="#F8DBE9"/>
</linearGradient>
<linearGradient id="paint9_linear_750:662" x1="23.8867" y1="12.9173" x2="21.2319" y2="19.9163" gradientUnits="userSpaceOnUse">
<stop stop-color="#0D1748"/>
<stop offset="1" stop-color="#1B237E"/>
</linearGradient>
<linearGradient id="paint10_linear_750:662" x1="23.6295" y1="4.57613" x2="22.3624" y2="10.3684" gradientUnits="userSpaceOnUse">
<stop stop-color="#F9B566"/>
<stop offset="1" stop-color="#F06C49"/>
</linearGradient>
<linearGradient id="paint11_linear_750:662" x1="17.9108" y1="38.2951" x2="18.6348" y2="31.5073" gradientUnits="userSpaceOnUse">
<stop stop-color="#F9B566"/>
<stop offset="1" stop-color="#F06C49"/>
</linearGradient>
<linearGradient id="paint12_linear_750:662" x1="-0.0652971" y1="27.8544" x2="7.44655" y2="24.3247" gradientUnits="userSpaceOnUse">
<stop stop-color="#F9B566"/>
<stop offset="1" stop-color="#F06C49"/>
</linearGradient>
<linearGradient id="paint13_linear_750:662" x1="7.69916" y1="8.77654" x2="11.9548" y2="14.4809" gradientUnits="userSpaceOnUse">
<stop stop-color="#F9B566"/>
<stop offset="1" stop-color="#F06C49"/>
</linearGradient>
<linearGradient id="paint14_linear_750:662" x1="36.6818" y1="13.8998" x2="29.3958" y2="17.217" gradientUnits="userSpaceOnUse">
<stop stop-color="#F9B566"/>
<stop offset="1" stop-color="#F06C49"/>
</linearGradient>
<linearGradient id="paint15_linear_750:662" x1="36.2577" y1="32.0697" x2="30.9179" y2="28.178" gradientUnits="userSpaceOnUse">
<stop stop-color="#F9B566"/>
<stop offset="1" stop-color="#F06C49"/>
</linearGradient>
</defs>
</svg>
