<svg width="25" height="25" viewBox="0 0 25 25" fill="none" xmlns="http://www.w3.org/2000/svg">
<path d="M23.179 5.90077C23.1242 5.73232 22.9786 5.60956 22.8033 5.58412L19.4834 5.10175L17.9986 2.09341C17.9202 1.93457 17.7585 1.83398 17.5813 1.83398C17.4042 1.83398 17.2425 1.93457 17.164 2.09341L15.6793 5.10175L12.3594 5.58412C12.1841 5.60961 12.0385 5.73237 11.9837 5.90077C11.929 6.06923 11.9746 6.25419 12.1014 6.37778L14.5042 8.71947L13.937 12.0259C13.9071 12.2005 13.9788 12.3769 14.1221 12.481C14.2654 12.5851 14.4553 12.5989 14.6121 12.5164L17.5815 10.9554L20.5509 12.5164C20.619 12.5522 20.6933 12.5699 20.7673 12.5699C20.8639 12.5699 20.9599 12.5399 21.0409 12.481C21.1842 12.3769 21.256 12.2005 21.2259 12.026L20.6588 8.71952L20.8847 8.4994C21.0687 8.32001 21.0724 8.02538 20.8931 7.84135C20.7138 7.65736 20.4191 7.65356 20.2351 7.83295L19.8341 8.22382C19.7244 8.3307 19.6744 8.48476 19.7004 8.63568L20.1494 11.254L17.798 10.0178C17.6624 9.94652 17.5005 9.94652 17.365 10.0178L15.0136 11.254L15.4627 8.63568C15.4886 8.48476 15.4385 8.33065 15.3289 8.22382L13.4265 6.36952L16.0554 5.98754C16.207 5.96552 16.338 5.87035 16.4057 5.73295L17.5814 3.35068L18.7571 5.73295C18.8249 5.87026 18.9559 5.96547 19.1074 5.98754L21.7364 6.36952L21.4197 6.67812C21.2357 6.85751 21.232 7.15214 21.4113 7.33617C21.5908 7.52021 21.8854 7.52406 22.0693 7.34457L23.0611 6.37782C23.1881 6.25409 23.2337 6.06923 23.179 5.90077Z" fill="#FCFCFC"/>
<path d="M24.7183 13.4029C24.53 13.322 24.3106 13.3738 24.1785 13.5309C22.4582 15.5752 19.9413 16.7478 17.2732 16.7478C12.299 16.7478 8.25218 12.701 8.25218 7.72677C8.25218 6.77447 8.39974 5.83697 8.69075 4.9403C8.77005 4.69586 8.63621 4.43341 8.39183 4.35402C8.1473 4.27467 7.88485 4.40851 7.80555 4.65294C7.48436 5.64254 7.32147 6.67677 7.32147 7.72672C7.32147 13.2141 11.7858 17.6784 17.2732 17.6784C19.7008 17.6784 22.015 16.7985 23.8161 15.225C22.5695 20.3574 17.9544 24.0693 12.5387 24.0693C6.13807 24.0693 0.930662 18.8619 0.930662 12.4611C0.930662 7.04542 4.64198 2.43053 9.7743 1.184C9.30486 1.72126 8.89456 2.30768 8.54779 2.93791C8.42396 3.16305 8.50604 3.44606 8.73118 3.56994C8.95633 3.69376 9.23924 3.61168 9.36321 3.38654C9.90233 2.40661 10.6108 1.54357 11.469 0.821454C11.6259 0.689374 11.6779 0.470088 11.5969 0.281611C11.5158 0.0931839 11.3214 -0.0200484 11.1172 0.00294963C8.07581 0.346357 5.26859 1.79435 3.21269 4.08024C1.14101 6.3838 0 9.36016 0 12.4611C0 19.3751 5.62494 24.9999 12.5389 24.9999C15.6398 24.9999 18.6162 23.8589 20.9197 21.7871C23.2056 19.7313 24.6536 16.9241 24.997 13.8827C25.02 13.6788 24.9068 13.484 24.7183 13.4029Z" fill="#FCFCFC"/>
</svg>
