<svg width="25" height="25" viewBox="0 0 25 25" fill="none" xmlns="http://www.w3.org/2000/svg">
<path d="M21.4519 14.165H20.6055V24.9995H21.4519C22.8579 24.9995 23.9978 23.8597 23.9978 22.4535V16.711C23.9979 15.3049 22.8579 14.165 21.4519 14.165Z" fill="#FCFCFC"/>
<path d="M1 16.711V22.4535C1 23.8597 2.13981 24.9995 3.54592 24.9995H4.39227V14.165H3.546C2.13981 14.165 1 15.3049 1 16.711Z" fill="#FCFCFC"/>
<path d="M12.5007 0C11.4387 0.442337 5.24219 3.17883 5.24219 6.76572V24.9754H19.7589V6.76572C19.7589 3.17516 13.5634 0.442031 12.5007 0ZM13.7964 8.20458L14.2433 6.8293L14.6901 8.20458H16.136L14.9662 9.05414L15.413 10.4296L14.2433 9.57956L13.0734 10.4296L13.5201 9.05414L12.3506 8.20458H13.7964V8.20458ZM15.5549 13.2796C13.9811 14.8533 11.4295 14.8533 9.85574 13.2796C8.28209 11.7056 8.28209 9.15428 9.85574 7.58032C10.1793 7.25694 10.5441 7.00013 10.9334 6.80963C10.197 8.31383 10.4538 10.1808 11.704 11.4313C12.9542 12.6815 14.8216 12.9385 16.3257 12.202C16.1351 12.5911 15.8784 12.9562 15.5549 13.2796Z" fill="#FCFCFC"/>
</svg>
